<?xml version="1.0" encoding="UTF-8" standalone="no"?>
<!-- Created with Inkscape (http://www.inkscape.org/) -->

<svg
   version="1.1"
   id="svg1048"
   width="1920"
   height="1080"
   viewBox="0 0 1920 1080"
   sodipodi:docname="rainbow-background.svg"
   inkscape:version="1.1.2 (0a00cf5339, 2022-02-04)"
   xmlns:inkscape="http://www.inkscape.org/namespaces/inkscape"
   xmlns:sodipodi="http://sodipodi.sourceforge.net/DTD/sodipodi-0.dtd"
   xmlns="http://www.w3.org/2000/svg"
   xmlns:svg="http://www.w3.org/2000/svg">
  <defs
     id="defs1052" />
  <sodipodi:namedview
     id="namedview1050"
     pagecolor="#ffffff"
     bordercolor="#666666"
     borderopacity="1.0"
     inkscape:pageshadow="2"
     inkscape:pageopacity="0.0"
     inkscape:pagecheckerboard="0"
     showgrid="false"
     inkscape:zoom="0.7462963"
     inkscape:cx="1083.3499"
     inkscape:cy="535.98015"
     inkscape:window-width="2560"
     inkscape:window-height="1021"
     inkscape:window-x="0"
     inkscape:window-y="24"
     inkscape:window-maximized="1"
     inkscape:current-layer="g1054" />
  <g
     inkscape:groupmode="layer"
     inkscape:label="Image"
     id="g1054">
    <g
       id="g2106"
       transform="translate(-0.00647646,-2.5645905)">
      <path
         style="fill:#fdfdfd"
         d="M 0.00647646,542.56459 V 2.5645905 H 960.00648 1920.0065 V 542.56459 1082.5646 H 960.00648 0.00647646 Z"
         id="path2122" />
      <path
         style="fill:#f9f401"
         d="m 1003.5031,1080.5539 c -0.6306,-1.9867 0.5573,-32.3223 2.5644,-65.4893 2.5746,-42.54553 9.9075,-93.71035 19.993,-139.50001 47.356,-215.00368 164.8312,-405.99967 336.4422,-547.00139 80.7845,-66.37546 176.1102,-121.33392 275.5038,-158.8372 33.6541,-12.69839 78.6336,-26.55236 112,-34.49672 46.6124,-11.09816 92.5837,-18.91085 133,-22.60296 6.325,-0.5778 16.4157,-1.50306 22.4237,-2.05614 6.008,-0.55307 11.7455,-1.00559 12.75,-1.00559 1.7638,0 1.8263,9.09608 1.8263,265.92054 v 265.92055 l -2.75,0.561 c -1.5125,0.30854 -7.475,1.28107 -13.25,2.16117 -59.8407,9.11957 -123.1641,33.76597 -177,68.89092 -27.7733,18.12054 -49.219,35.64421 -74.0295,60.49082 -41.1219,41.18168 -70.2622,83.33133 -94.4078,136.555 -22.1433,48.80999 -35.9723,104.93491 -39.3003,159.50001 l -0.7624,12.5 -257.182,0.2519 c -257.0327,0.2518 -257.1824,0.2508 -257.8214,-1.7626 z"
         id="path2120" />
      <path
         style="fill:#cd02c7"
         d="m 1003.5025,1080.552 c -0.63,-1.9851 0.5585,-32.3309 2.565,-65.4874 2.5746,-42.54553 9.9075,-93.71035 19.993,-139.50001 47.356,-215.00368 164.8312,-405.99967 336.4422,-547.00139 80.7845,-66.37546 176.1102,-121.33392 275.5038,-158.8372 33.6541,-12.69839 78.6336,-26.55236 112,-34.49672 46.6124,-11.09816 92.5837,-18.91085 133,-22.60296 6.325,-0.5778 16.4157,-1.50306 22.4237,-2.05614 6.008,-0.55307 11.7455,-1.00559 12.75,-1.00559 1.7529,0 1.8263,3.15127 1.8263,78.38108 v 78.38108 l -9.75,0.68563 c -24.6914,1.73631 -67.0145,7.30916 -87.75,11.5544 -2.75,0.56302 -9.5,1.92819 -15,3.03372 -123.5634,24.83685 -247.3949,83.34343 -349,164.8918 -32.8361,26.35427 -80.4968,71.52659 -100.4287,95.18532 -3.0642,3.63717 -10.0713,11.92019 -15.5713,18.40672 -13.093,15.44146 -28.8366,35.59855 -39.2516,50.25519 -9.7209,13.67986 -26.2998,38.51229 -29.6526,44.41471 -5.2626,9.26474 -19.0515,32.65648 -21.1093,35.81035 -3.2353,4.95847 -20.8065,39.82597 -29.276,58.094 -21.6838,46.76989 -43.4216,110.86574 -53.2137,156.906 -0.9943,4.675 -3.0058,14.125 -4.4699,21 -8.5936,40.35257 -14.3026,89.13631 -16.1206,137.75001 l -0.6825,18.25 h -72.2945 c -71.5675,0 -72.3009,-0.02 -72.9333,-2.0126 z m 215.8483,-15.4489 c 2.844,-75.38699 17.8774,-153.095 43.0521,-222.53851 7.8912,-21.76752 9.4249,-25.67075 17.0055,-43.27926 21.2768,-49.42244 43.6202,-89.63684 74.4447,-133.98802 12.1752,-17.51799 13.435,-19.26197 21.7554,-30.11593 27.3324,-35.65495 66.4865,-77.20923 101.898,-108.14421 10.6518,-9.30527 40.0107,-32.97893 47.5,-38.30177 2.475,-1.75906 6.975,-5.01678 10,-7.23939 38.439,-28.24291 97.6453,-61.5374 143,-80.41569 69.2266,-28.81462 125.2615,-44.09967 199.5,-54.41912 6.6335,-0.92208 38.9377,-4.09661 41.6874,-4.09661 0.4469,0 0.8126,67.23925 0.8126,149.42054 v 149.42055 l -2.75,0.561 c -1.5125,0.30854 -7.475,1.28107 -13.25,2.16117 -59.8407,9.11957 -123.1641,33.76597 -177,68.89092 -27.7733,18.12054 -49.219,35.64421 -74.0295,60.49082 -41.1219,41.18168 -70.2622,83.33133 -94.4078,136.555 -22.1433,48.80999 -35.9723,104.93491 -39.3003,159.50001 l -0.7624,12.5 -149.9074,0.2533 -149.9073,0.2532 z"
         id="path2118" />
      <path
         style="fill:#fc7c00"
         d="m 1003.5025,1080.552 c -0.6321,-1.9916 0.57,-32.6109 2.5709,-65.4874 1.0555,-17.34236 4.7619,-52.60228 7.5158,-71.50001 4.4681,-30.66108 14.8133,-82.48826 19.4618,-97.5 0.511,-1.65 2.0922,-7.725 3.514,-13.5 1.4217,-5.775 3.264,-12.75 4.094,-15.5 15.1905,-50.32762 28.267,-86.38656 45.5103,-125.49614 9.4961,-21.53799 27.1855,-57.59565 35.3241,-72.00386 2.6408,-4.675 7.2537,-12.95217 10.251,-18.39372 2.9973,-5.44154 8.1464,-14.21654 11.4425,-19.5 3.2961,-5.28345 7.1914,-11.58154 8.6562,-13.99575 7.1109,-11.71939 26.798,-41.04007 29.7875,-44.36341 1.8568,-2.06409 3.3759,-4.16418 3.3759,-4.66687 0,-0.86322 15.122,-21.31698 25.6689,-34.71925 2.6571,-3.37646 6.1756,-7.87646 7.8189,-10 38.1329,-49.27777 111.7939,-122.10376 159.3772,-157.57039 1.9992,-1.49017 4.31,-3.33967 5.135,-4.11001 6.8235,-6.3714 72.2049,-52.1038 78,-54.55876 0.825,-0.34949 4.0231,-2.29248 7.1068,-4.31777 6.498,-4.26764 32.7421,-19.80407 33.4529,-19.80407 0.264,0 2.1586,-1.05935 4.2102,-2.35411 7.4776,-4.71918 49.192,-26.06965 66.7859,-34.18266 41.7108,-19.23404 94.66,-38.9939 132.9442,-49.61284 2.2,-0.61022 5.8,-1.70142 8,-2.4249 7.188,-2.36379 29.7035,-8.18547 44,-11.37676 7.7,-1.71881 15.8,-3.56818 18,-4.10972 19.8398,-4.88361 69.6641,-12.89163 102.5,-16.47432 7.3533,-0.8023 38.3557,-3.26286 40.25,-3.19451 1.6512,0.0596 1.75,4.47837 1.75,78.27757 v 78.21441 l -9.75,0.68563 c -24.6914,1.73631 -67.0145,7.30916 -87.75,11.5544 -2.75,0.56302 -9.5,1.92819 -15,3.03372 -123.5634,24.83685 -247.3949,83.34343 -349,164.8918 -32.8361,26.35427 -80.4968,71.52659 -100.4287,95.18532 -3.0642,3.63717 -10.0713,11.92019 -15.5713,18.40672 -13.093,15.44146 -28.8366,35.59855 -39.2516,50.25519 -9.7209,13.67986 -26.2998,38.51229 -29.6526,44.41471 -5.2626,9.26474 -19.0515,32.65648 -21.1093,35.81035 -3.2353,4.95847 -20.8065,39.82597 -29.276,58.094 -21.6838,46.76989 -43.4216,110.86574 -53.2137,156.906 -0.9943,4.675 -3.0058,14.125 -4.4699,21 -8.5936,40.35257 -14.3026,89.13631 -16.1206,137.75001 l -0.6825,18.25 h -72.2945 c -71.5675,0 -72.3009,-0.02 -72.9333,-2.0126 z m 215.8484,-15.4522 c 2.8439,-75.38346 17.8777,-153.09296 43.052,-222.53521 7.8912,-21.76752 9.4249,-25.67075 17.0055,-43.27926 21.2768,-49.42244 43.6202,-89.63684 74.4447,-133.98802 12.1752,-17.51799 13.435,-19.26197 21.7554,-30.11593 27.3324,-35.65495 66.4865,-77.20923 101.898,-108.14421 10.6518,-9.30527 40.0107,-32.97893 47.5,-38.30177 2.475,-1.75906 6.975,-5.01678 10,-7.23939 38.439,-28.24291 97.6453,-61.5374 143,-80.41569 69.2266,-28.81462 125.2615,-44.09967 199.5,-54.41912 6.6335,-0.92208 38.9377,-4.09661 41.6874,-4.09661 0.4469,0 0.8126,51.67777 0.8126,114.83948 v 114.83949 l -2.75,1.25662 c -1.5125,0.69113 -6.8,1.65514 -11.75,2.14223 -13.0515,1.2843 -40.1572,6.30606 -54,10.00437 -2.2,0.58776 -5.8,1.44877 -8,1.91336 -2.2,0.46459 -7.7125,2.00565 -12.25,3.42458 -4.5375,1.41893 -11.7375,3.66384 -16,4.98868 -12.1579,3.77885 -28.3632,9.48159 -32.75,11.52491 -2.2,1.02474 -7.891,3.50427 -12.6468,5.51008 -4.7557,2.00581 -9.9162,4.18902 -11.4678,4.85157 -5.3048,2.2652 -45.8824,22.97218 -47.3854,24.18106 -0.825,0.66355 -4.425,2.93314 -8,5.04354 -3.575,2.1104 -7.7918,4.89841 -9.3707,6.19558 -1.5789,1.29717 -4.4428,3.01535 -6.3642,3.81817 -1.9215,0.80283 -5.0328,2.81117 -6.9141,4.46298 -1.8813,1.65182 -3.7931,3.0033 -4.2483,3.0033 -0.4552,0 -2.4136,1.2375 -4.3518,2.75 -1.9383,1.5125 -6.1088,4.55 -9.2677,6.75 -3.1589,2.2 -7.866,5.8 -10.4601,8 -2.5941,2.2 -6.0231,5.01798 -7.6199,6.26219 -12.8319,9.99853 -22.3077,18.35517 -36.5551,32.23781 -5.9268,5.775 -11.3547,11.00808 -12.062,11.62906 -1.5454,1.35674 -6.1652,6.56522 -10.0858,11.37094 -1.5704,1.925 -5.6406,6.425 -9.0449,10 -3.4042,3.575 -8.2069,9.2 -10.6725,12.5 -2.4656,3.3 -6.8454,8.81856 -9.7329,12.26346 -2.8875,3.44491 -5.25,6.68004 -5.25,7.18919 0,0.50914 -1.6875,2.90717 -3.75,5.32894 -4.7831,5.61631 -13.6195,18.34666 -18.5458,26.71841 -2.1037,3.575 -4.8854,8.075 -6.1817,10 -3.1805,4.72336 -17.3263,30.78937 -18.1304,33.40823 -0.3532,1.15047 -2.2148,4.79177 -4.1367,8.09177 -1.922,3.3 -4.971,9.6 -6.7755,14 -1.8046,4.4 -5.3505,12.67688 -7.8798,18.39306 -4.6512,10.51163 -17.2862,47.98341 -19.5929,58.10694 -0.6893,3.025 -2.281,9.1 -3.5372,13.5 -3.0688,10.74947 -4.8699,19.31779 -7.8828,37.50001 -0.7747,4.675 -1.6726,9.175 -1.9952,10 -0.9577,2.4486 -4.8403,45.4744 -5.0082,55.5 -0.046,2.75 -0.5338,5.3306 -1.0838,5.7347 -0.55,0.4041 -52.0333,0.7416 -114.4072,0.75 l -113.4073,0.015 0.6589,-17.4648 z"
         id="path2116" />
      <path
         style="fill:#0164fb"
         d="m 1004.4813,1079.8269 c 0.2363,-1.5193 0.6835,-13.0057 0.9938,-25.5255 0.9208,-37.1518 4.4177,-79.05869 9.0317,-108.23681 0.7828,-4.95 2.1548,-13.725 3.0489,-19.5 5.4816,-35.40624 16.1231,-81.26773 28.7723,-124 10.5429,-35.6164 29.1473,-85.23485 43.7763,-116.75267 1.5962,-3.43897 2.9022,-6.4577 2.9022,-6.70829 0,-0.85174 20.8891,-42.99151 26.2919,-53.03904 37.1117,-69.01526 80.0437,-130.46542 133.0923,-190.5 14.8416,-16.79608 62.0699,-64.0282 78.0334,-78.03968 25.3563,-22.2558 40.5279,-34.73147 62.0824,-51.05065 124.8067,-94.49272 271.6681,-157.9981 425.1797,-183.85503 26.1146,-4.39866 57.3765,-8.39395 78.3203,-10.00942 6.875,-0.53029 15.0875,-1.26936 18.25,-1.64237 l 5.75,-0.67821 v 37.9289 37.92891 l -16.25,1.26562 c -8.9375,0.69609 -19.4,1.71904 -23.25,2.27323 -3.85,0.55418 -12.4,1.6248 -19,2.37915 -12.83,1.46641 -32.9494,4.55199 -46,7.05474 -19.4512,3.73018 -52.14,10.9479 -63,13.91043 -2.75,0.75018 -8.6,2.32591 -13,3.50162 -61.7207,16.49216 -131.2488,44.5295 -190,76.61785 -46.7165,25.51532 -95.8309,58.09799 -131.4419,87.19903 -5.1931,4.24373 -13.2931,10.84381 -18,14.66683 -29.1902,23.70858 -82.24,76.01193 -105.5339,104.04905 -26.6851,32.11865 -43.9342,54.90081 -62.085,82 -6.9993,10.45 -13.9483,20.8 -15.4421,23 -4.9732,7.32375 -17.6036,28.77479 -28.354,48.15516 -21.3993,38.57805 -42.6568,85.6594 -57.9483,128.34484 -7.4385,20.76385 -20.6115,63.18571 -23.2894,75 -0.6857,3.025 -2.5696,10.9 -4.1865,17.5 -4.2898,17.51063 -7.0286,29.87416 -8.7502,39.5 -10.403,58.16829 -14.2224,93.55131 -16.2997,151.00001 l -0.669,18.5 -36.7275,0.2623 -36.7274,0.2623 z m 214.8696,-14.7271 c 2.8439,-75.38346 17.8777,-153.09296 43.052,-222.53521 7.8912,-21.76752 9.4249,-25.67075 17.0055,-43.27926 21.2768,-49.42244 43.6202,-89.63684 74.4447,-133.98802 12.1752,-17.51799 13.435,-19.26197 21.7554,-30.11593 27.3324,-35.65495 66.4865,-77.20923 101.898,-108.14421 10.6518,-9.30527 40.0107,-32.97893 47.5,-38.30177 2.475,-1.75906 6.975,-5.01678 10,-7.23939 38.439,-28.24291 97.6453,-61.5374 143,-80.41569 69.2266,-28.81462 125.2615,-44.09967 199.5,-54.41912 6.6335,-0.92208 38.9377,-4.09661 41.6874,-4.09661 0.4469,0 0.8126,51.67777 0.8126,114.83948 v 114.83949 l -2.75,1.25662 c -1.5125,0.69113 -6.8,1.65514 -11.75,2.14223 -13.0515,1.2843 -40.1572,6.30606 -54,10.00437 -2.2,0.58776 -5.8,1.44877 -8,1.91336 -2.2,0.46459 -7.7125,2.00565 -12.25,3.42458 -4.5375,1.41893 -11.7375,3.66384 -16,4.98868 -12.1579,3.77885 -28.3632,9.48159 -32.75,11.52491 -2.2,1.02474 -7.891,3.50427 -12.6468,5.51008 -4.7557,2.00581 -9.9162,4.18902 -11.4678,4.85157 -5.3048,2.2652 -45.8824,22.97218 -47.3854,24.18106 -0.825,0.66355 -4.425,2.93314 -8,5.04354 -3.575,2.1104 -7.7918,4.89841 -9.3707,6.19558 -1.5789,1.29717 -4.4428,3.01535 -6.3642,3.81817 -1.9215,0.80283 -5.0328,2.81117 -6.9141,4.46298 -1.8813,1.65182 -3.7931,3.0033 -4.2483,3.0033 -0.4552,0 -2.4136,1.2375 -4.3518,2.75 -1.9383,1.5125 -6.1088,4.55 -9.2677,6.75 -3.1589,2.2 -7.866,5.8 -10.4601,8 -2.5941,2.2 -6.0231,5.01798 -7.6199,6.26219 -12.8319,9.99853 -22.3077,18.35517 -36.5551,32.23781 -5.9268,5.775 -11.3547,11.00808 -12.062,11.62906 -1.5454,1.35674 -6.1652,6.56522 -10.0858,11.37094 -1.5704,1.925 -5.6406,6.425 -9.0449,10 -3.4042,3.575 -8.2069,9.2 -10.6725,12.5 -2.4656,3.3 -6.8454,8.81856 -9.7329,12.26346 -2.8875,3.44491 -5.25,6.68004 -5.25,7.18919 0,0.50914 -1.6875,2.90717 -3.75,5.32894 -4.7831,5.61631 -13.6195,18.34666 -18.5458,26.71841 -2.1037,3.575 -4.8854,8.075 -6.1817,10 -3.1805,4.72336 -17.3263,30.78937 -18.1304,33.40823 -0.3532,1.15047 -2.2148,4.79177 -4.1367,8.09177 -1.922,3.3 -4.971,9.6 -6.7755,14 -1.8046,4.4 -5.3505,12.67688 -7.8798,18.39306 -4.6512,10.51163 -17.2862,47.98341 -19.5929,58.10694 -0.6893,3.025 -2.281,9.1 -3.5372,13.5 -3.0688,10.74947 -4.8699,19.31779 -7.8828,37.50001 -0.7747,4.675 -1.6726,9.175 -1.9952,10 -0.9577,2.4486 -4.8403,45.4744 -5.0082,55.5 -0.046,2.75 -0.5338,5.3306 -1.0838,5.7347 -0.55,0.4041 -52.0333,0.7416 -114.4072,0.75 l -113.4073,0.015 0.6589,-17.4648 z"
         id="path2114" />
      <path
         style="fill:#7601e3"
         d="m 1004.4813,1079.8269 c 0.2363,-1.5193 0.6835,-13.0057 0.9938,-25.5255 0.9208,-37.1518 4.4177,-79.05869 9.0317,-108.23681 0.7828,-4.95 2.1548,-13.725 3.0489,-19.5 5.4816,-35.40624 16.1231,-81.26773 28.7723,-124 10.5429,-35.6164 29.1473,-85.23485 43.7763,-116.75267 1.5962,-3.43897 2.9022,-6.4577 2.9022,-6.70829 0,-0.85174 20.8891,-42.99151 26.2919,-53.03904 37.1117,-69.01526 80.0437,-130.46542 133.0923,-190.5 14.8416,-16.79608 62.0699,-64.0282 78.0334,-78.03968 25.3563,-22.2558 40.5279,-34.73147 62.0824,-51.05065 124.8067,-94.49272 271.6681,-157.9981 425.1797,-183.85503 26.1146,-4.39866 57.3765,-8.39395 78.3203,-10.00942 6.875,-0.53029 15.0875,-1.26936 18.25,-1.64237 l 5.75,-0.67821 v 37.9289 37.92891 l -16.25,1.26562 c -8.9375,0.69609 -19.4,1.71904 -23.25,2.27323 -3.85,0.55418 -12.4,1.6248 -19,2.37915 -12.83,1.46641 -32.9494,4.55199 -46,7.05474 -19.4512,3.73018 -52.14,10.9479 -63,13.91043 -2.75,0.75018 -8.6,2.32591 -13,3.50162 -61.7207,16.49216 -131.2488,44.5295 -190,76.61785 -46.7165,25.51532 -95.8309,58.09799 -131.4419,87.19903 -5.1931,4.24373 -13.2931,10.84381 -18,14.66683 -29.1902,23.70858 -82.24,76.01193 -105.5339,104.04905 -26.6851,32.11865 -43.9342,54.90081 -62.085,82 -6.9993,10.45 -13.9483,20.8 -15.4421,23 -4.9732,7.32375 -17.6036,28.77479 -28.354,48.15516 -21.3993,38.57805 -42.6568,85.6594 -57.9483,128.34484 -7.4385,20.76385 -20.6115,63.18571 -23.2894,75 -0.6857,3.025 -2.5696,10.9 -4.1865,17.5 -4.2898,17.51063 -7.0286,29.87416 -8.7502,39.5 -10.403,58.16829 -14.2224,93.55131 -16.2997,151.00001 l -0.669,18.5 -36.7275,0.2623 -36.7274,0.2623 z m 214.8696,-14.7271 c 2.8439,-75.38346 17.8777,-153.09296 43.052,-222.53521 7.8912,-21.76752 9.4249,-25.67075 17.0055,-43.27926 21.2768,-49.42244 43.6202,-89.63684 74.4447,-133.98802 12.1752,-17.51799 13.435,-19.26197 21.7554,-30.11593 27.3324,-35.65495 66.4865,-77.20923 101.898,-108.14421 10.6518,-9.30527 40.0107,-32.97893 47.5,-38.30177 2.475,-1.75906 6.975,-5.01678 10,-7.23939 38.439,-28.24291 97.6453,-61.5374 143,-80.41569 69.2266,-28.81462 125.2615,-44.09967 199.5,-54.41912 6.6335,-0.92208 38.9377,-4.09661 41.6874,-4.09661 0.4469,0 0.8126,17.05186 0.8126,37.89301 0,42.67617 0.7549,39.10699 -8.2716,39.10699 -2.8094,0 -7.6101,0.45385 -10.6682,1.00856 -3.0581,0.55471 -12.7602,1.93239 -21.5602,3.06153 -58.967,7.56608 -127.4238,27.31181 -183.4939,52.92711 -6.0229,2.75154 -11.2031,5.0028 -11.5116,5.0028 -0.593,0 -41.0378,21.39612 -50.0925,26.5 -9.6601,5.44512 -16.858,9.82993 -19.9964,12.18146 -1.7019,1.2752 -3.4097,2.31854 -3.7952,2.31854 -0.3854,0 -4.1184,2.3625 -8.2955,5.25 -4.1771,2.8875 -9.9738,6.825 -12.8815,8.75 -9.6424,6.38362 -17.8515,12.30113 -24.8783,17.93338 -3.8197,3.06164 -8.5742,6.69162 -10.5656,8.06662 -9.0528,6.25072 -31.2901,25.64209 -51.9895,45.33585 -17.6145,16.7587 -43.6846,45.13924 -56.5177,61.52633 -2.7402,3.4992 -6.7009,8.40001 -8.8014,10.8907 -2.1006,2.49069 -4.5551,5.70271 -5.4546,7.13783 -0.8995,1.43511 -3.2842,4.63429 -5.2993,7.10929 -3.5735,4.38906 -19.293,27.55611 -29.5371,43.53113 -12.4709,19.4478 -28.9941,50.28033 -43.3865,80.96007 -8.5371,18.19816 -25.0958,61.8254 -29.4185,77.5088 -0.8337,3.025 -3.1242,10.9 -5.09,17.5 -3.7758,12.67731 -4.2673,14.67376 -9.8487,40 -8.9429,40.58 -15.3148,93.00661 -15.1013,124.25001 l 0.029,4.25 h -37.4443 -37.4442 l 0.6589,-17.4648 z m 151.0961,-0.2852 c 0.3761,-9.7625 1.342,-23.375 2.1466,-30.25 3.5943,-30.7141 3.259,-28.4806 7.9577,-53.00001 4.7576,-24.82672 16.2516,-68.06433 21.2666,-80 0.8088,-1.925 1.826,-4.85 2.2603,-6.5 0.9359,-3.55576 5.8817,-16.55295 12.3672,-32.5 7.0117,-17.24103 24.6459,-52.41408 35.5962,-71 10.5249,-17.86397 18.4756,-29.93324 34.6672,-52.62545 9.8997,-13.8744 30.3988,-38.92807 40.7977,-49.86247 1.1,-1.15665 5.5841,-6.0641 9.9647,-10.90546 12.3487,-13.64773 46.012,-44.08094 62.6411,-56.63067 2.5333,-1.91177 9.2131,-6.98368 14.8442,-11.27091 5.631,-4.28723 13.9084,-10.24873 18.3941,-13.24779 4.4858,-2.99906 9.9559,-6.75177 12.1559,-8.33935 2.2,-1.58758 5.882,-3.83214 8.1822,-4.98792 2.3001,-1.15577 4.4466,-2.52933 4.7698,-3.05237 0.3233,-0.52303 1.8163,-1.58098 3.3179,-2.35099 1.5015,-0.77002 9.9301,-5.45117 18.7301,-10.40256 57.429,-32.31284 121.2822,-55.23732 186.5,-66.95697 16.5044,-2.96584 26.599,-4.50203 35.5,-5.40235 4.95,-0.50069 10.0508,-1.16576 11.335,-1.47794 1.2843,-0.31217 3.1968,-0.29409 4.25,0.0402 1.8433,0.58502 1.915,2.05999 1.915,39.37988 v 38.7721 l -2.75,1.25662 c -1.5125,0.69113 -6.8,1.65514 -11.75,2.14223 -13.0515,1.2843 -40.1572,6.30606 -54,10.00437 -2.2,0.58776 -5.8,1.44877 -8,1.91336 -2.2,0.46459 -7.7125,2.00565 -12.25,3.42458 -4.5375,1.41893 -11.7375,3.66384 -16,4.98868 -12.1579,3.77885 -28.3632,9.48159 -32.75,11.52491 -2.2,1.02474 -7.891,3.50427 -12.6468,5.51008 -4.7557,2.00581 -9.9162,4.18902 -11.4678,4.85157 -5.3048,2.2652 -45.8824,22.97218 -47.3854,24.18106 -0.825,0.66355 -4.425,2.93314 -8,5.04354 -3.575,2.1104 -7.7918,4.89841 -9.3707,6.19558 -1.5789,1.29717 -4.4428,3.01535 -6.3642,3.81817 -1.9215,0.80283 -5.0328,2.81117 -6.9141,4.46298 -1.8813,1.65182 -3.7931,3.0033 -4.2483,3.0033 -0.4552,0 -2.4136,1.2375 -4.3518,2.75 -1.9383,1.5125 -6.1088,4.55 -9.2677,6.75 -3.1589,2.2 -7.866,5.8 -10.4601,8 -2.5941,2.2 -6.0231,5.01798 -7.6199,6.26219 -12.8319,9.99853 -22.3077,18.35517 -36.5551,32.23781 -5.9268,5.775 -11.3547,11.00808 -12.062,11.62906 -1.5454,1.35674 -6.1652,6.56522 -10.0858,11.37094 -1.5704,1.925 -5.6406,6.425 -9.0449,10 -3.4042,3.575 -8.2069,9.2 -10.6725,12.5 -2.4656,3.3 -6.8454,8.81856 -9.7329,12.26346 -2.8875,3.44491 -5.25,6.68004 -5.25,7.18919 0,0.50914 -1.6875,2.90717 -3.75,5.32894 -4.7831,5.61631 -13.6195,18.34666 -18.5458,26.71841 -2.1037,3.575 -4.8854,8.075 -6.1817,10 -3.1805,4.72336 -17.3263,30.78937 -18.1304,33.40823 -0.3532,1.15047 -2.2148,4.79177 -4.1367,8.09177 -1.922,3.3 -4.971,9.6 -6.7755,14 -1.8046,4.4 -5.3505,12.67688 -7.8798,18.39306 -4.6512,10.51163 -17.2862,47.98341 -19.5929,58.10694 -0.6893,3.025 -2.281,9.1 -3.5372,13.5 -3.0688,10.74947 -4.8699,19.31779 -7.8828,37.5 -0.7747,4.675 -1.6726,9.175 -1.9952,10 -0.9577,2.4486 -4.8403,45.4744 -5.0082,55.5 -0.046,2.75 -0.5338,5.3306 -1.0838,5.7347 -0.55,0.4041 -18.0422,0.7416 -38.8716,0.75 l -37.8715,0.015 0.6836,-17.75 z"
         id="path2112" />
      <path
         style="fill:#fb0101"
         d="m 1004.4813,1079.8269 c 0.2363,-1.5193 0.6835,-13.0057 0.9938,-25.5255 0.9208,-37.1518 4.4177,-79.05869 9.0317,-108.23681 0.7828,-4.95 2.1548,-13.725 3.0489,-19.5 5.4816,-35.40624 16.1231,-81.26773 28.7723,-124 10.5429,-35.6164 29.1473,-85.23485 43.7763,-116.75267 1.5962,-3.43897 2.9022,-6.4577 2.9022,-6.70829 0,-0.85174 20.8891,-42.99151 26.2919,-53.03904 37.1117,-69.01526 80.0437,-130.46542 133.0923,-190.5 14.8416,-16.79608 62.0699,-64.0282 78.0334,-78.03968 25.3563,-22.2558 40.5279,-34.73147 62.0824,-51.05065 124.8067,-94.49272 271.6681,-157.9981 425.1797,-183.85503 26.1146,-4.39866 57.3765,-8.39395 78.3203,-10.00942 6.875,-0.53029 15.0875,-1.26936 18.25,-1.64237 l 5.75,-0.67821 v 37.9289 37.92891 l -16.25,1.26562 c -8.9375,0.69609 -19.4,1.71904 -23.25,2.27323 -3.85,0.55418 -12.4,1.6248 -19,2.37915 -12.83,1.46641 -32.9494,4.55199 -46,7.05474 -19.4512,3.73018 -52.14,10.9479 -63,13.91043 -2.75,0.75018 -8.6,2.32591 -13,3.50162 -61.7207,16.49216 -131.2488,44.5295 -190,76.61785 -46.7165,25.51532 -95.8309,58.09799 -131.4419,87.19903 -5.1931,4.24373 -13.2931,10.84381 -18,14.66683 -29.1902,23.70858 -82.24,76.01193 -105.5339,104.04905 -26.6851,32.11865 -43.9342,54.90081 -62.085,82 -6.9993,10.45 -13.9483,20.8 -15.4421,23 -4.9732,7.32375 -17.6036,28.77479 -28.354,48.15516 -21.3993,38.57805 -42.6568,85.6594 -57.9483,128.34484 -7.4385,20.76385 -20.6115,63.18571 -23.2894,75 -0.6857,3.025 -2.5696,10.9 -4.1865,17.5 -4.2898,17.51063 -7.0286,29.87416 -8.7502,39.5 -10.403,58.16829 -14.2224,93.55131 -16.2997,151.00001 l -0.669,18.5 -36.7275,0.2623 -36.7274,0.2623 z m 214.8696,-14.7271 c 2.8439,-75.38346 17.8777,-153.09296 43.052,-222.53521 7.8912,-21.76752 9.4249,-25.67075 17.0055,-43.27926 21.2768,-49.42244 43.6202,-89.63684 74.4447,-133.98802 12.1752,-17.51799 13.435,-19.26197 21.7554,-30.11593 27.3324,-35.65495 66.4865,-77.20923 101.898,-108.14421 10.6518,-9.30527 40.0107,-32.97893 47.5,-38.30177 2.475,-1.75906 6.975,-5.01678 10,-7.23939 38.439,-28.24291 97.6453,-61.5374 143,-80.41569 69.2266,-28.81462 125.2615,-44.09967 199.5,-54.41912 6.6335,-0.92208 38.9377,-4.09661 41.6874,-4.09661 0.4469,0 0.8126,17.05186 0.8126,37.89301 0,42.67617 0.7549,39.10699 -8.2716,39.10699 -2.8094,0 -7.6101,0.45385 -10.6682,1.00856 -3.0581,0.55471 -12.7602,1.93239 -21.5602,3.06153 -58.967,7.56608 -127.4238,27.31181 -183.4939,52.92711 -6.0229,2.75154 -11.2031,5.0028 -11.5116,5.0028 -0.593,0 -41.0378,21.39612 -50.0925,26.5 -9.6601,5.44512 -16.858,9.82993 -19.9964,12.18146 -1.7019,1.2752 -3.4097,2.31854 -3.7952,2.31854 -0.3854,0 -4.1184,2.3625 -8.2955,5.25 -4.1771,2.8875 -9.9738,6.825 -12.8815,8.75 -9.6424,6.38362 -17.8515,12.30113 -24.8783,17.93338 -3.8197,3.06164 -8.5742,6.69162 -10.5656,8.06662 -9.0528,6.25072 -31.2901,25.64209 -51.9895,45.33585 -17.6145,16.7587 -43.6846,45.13924 -56.5177,61.52633 -2.7402,3.4992 -6.7009,8.40001 -8.8014,10.8907 -2.1006,2.49069 -4.5551,5.70271 -5.4546,7.13783 -0.8995,1.43511 -3.2842,4.63429 -5.2993,7.10929 -3.5735,4.38906 -19.293,27.55611 -29.5371,43.53113 -12.4709,19.4478 -28.9941,50.28033 -43.3865,80.96007 -8.5371,18.19816 -25.0958,61.8254 -29.4185,77.5088 -0.8337,3.025 -3.1242,10.9 -5.09,17.5 -3.7758,12.67731 -4.2673,14.67376 -9.8487,40 -8.9429,40.58 -15.3148,93.00661 -15.1013,124.25001 l 0.029,4.25 h -37.4443 -37.4442 l 0.6589,-17.4648 z"
         id="path2110" />
      <path
         style="fill:#02b93c"
         d="m 1219.3509,1065.0998 c 2.8439,-75.38346 17.8777,-153.09296 43.052,-222.53521 7.8912,-21.76752 9.4249,-25.67075 17.0055,-43.27926 21.2768,-49.42244 43.6202,-89.63684 74.4447,-133.98802 12.1752,-17.51799 13.435,-19.26197 21.7554,-30.11593 27.3324,-35.65495 66.4865,-77.20923 101.898,-108.14421 10.6518,-9.30527 40.0107,-32.97893 47.5,-38.30177 2.475,-1.75906 6.975,-5.01678 10,-7.23939 38.439,-28.24291 97.6453,-61.5374 143,-80.41569 69.2266,-28.81462 125.2615,-44.09967 199.5,-54.41912 6.6335,-0.92208 38.9377,-4.09661 41.6874,-4.09661 0.4469,0 0.8126,17.05186 0.8126,37.89301 0,42.67617 0.7549,39.10699 -8.2716,39.10699 -2.8094,0 -7.6101,0.45385 -10.6682,1.00856 -3.0581,0.55471 -12.7602,1.93239 -21.5602,3.06153 -58.967,7.56608 -127.4238,27.31181 -183.4939,52.92711 -6.0229,2.75154 -11.2031,5.0028 -11.5116,5.0028 -0.593,0 -41.0378,21.39612 -50.0925,26.5 -9.6601,5.44512 -16.858,9.82993 -19.9964,12.18146 -1.7019,1.2752 -3.4097,2.31854 -3.7952,2.31854 -0.3854,0 -4.1184,2.3625 -8.2955,5.25 -4.1771,2.8875 -9.9738,6.825 -12.8815,8.75 -9.6424,6.38362 -17.8515,12.30113 -24.8783,17.93338 -3.8197,3.06164 -8.5742,6.69162 -10.5656,8.06662 -9.0528,6.25072 -31.2901,25.64209 -51.9895,45.33585 -17.6145,16.7587 -43.6846,45.13924 -56.5177,61.52633 -2.7402,3.4992 -6.7009,8.40001 -8.8014,10.8907 -2.1006,2.49069 -4.5551,5.70271 -5.4546,7.13783 -0.8995,1.43511 -3.2842,4.63429 -5.2993,7.10929 -3.5735,4.38906 -19.293,27.55611 -29.5371,43.53113 -12.4709,19.4478 -28.9941,50.28033 -43.3865,80.96007 -8.5371,18.19816 -25.0958,61.8254 -29.4185,77.5088 -0.8337,3.025 -3.1242,10.9 -5.09,17.5 -3.7758,12.67731 -4.2673,14.67376 -9.8487,40 -8.9429,40.58 -15.3148,93.00661 -15.1013,124.25001 l 0.029,4.25 h -37.4443 -37.4442 l 0.6589,-17.4648 z"
         id="path2108" />
    </g>
  </g>
</svg>
